<svg width="120" height="20" viewBox="0 0 120 20" fill="none" xmlns="http://www.w3.org/2000/svg">
<path d="M46.2653 9.7805C46.8181 9.7805 47.3285 9.7085 47.7965 9.5675C48.2646 9.4258 48.6672 9.2239 49.0068 8.9619C49.347 8.6999 49.6138 8.3814 49.8047 8.0066C49.9971 7.6318 50.0915 7.202 50.0915 6.7226V6.6795C50.0915 5.7599 49.7586 5.0421 49.0922 4.5233C48.4258 4.0067 47.4912 3.7492 46.2869 3.7492H41.694V9.7813H46.2646L46.2653 9.7805ZM38.4971 1.01704H46.5342C47.691 1.01704 48.72 1.1833 49.6182 1.50988C50.5172 1.8424 51.2601 2.30184 51.8478 2.8882C52.3121 3.3528 52.665 3.8961 52.9154 4.5204C53.1658 5.1423 53.2906 5.8282 53.2906 6.5763V6.6305C53.2906 7.4143 53.1658 8.1142 52.9154 8.7288C52.665 9.3426 52.3166 9.877 51.8612 10.3335C51.4065 10.7877 50.8701 11.1611 50.2467 11.4557C49.6227 11.7497 48.9481 11.9582 48.2178 12.0822L53.9681 19.7257H50.0224L44.5974 12.4585H41.6962V19.7257H38.4986V1.01852L38.4971 1.01704Z" fill="white"/>
<path d="M62.064 4.1967H56.3114V1.01704H70.9986V4.1967H65.2468V19.7242H62.064V4.1967Z" fill="white"/>
<path d="M74.9838 1.01704H88.5202V4.1967H78.1665V8.7808H87.3159V11.9605H78.1665V16.5437H88.6539V19.7242H74.9838V1.01704Z" fill="white"/>
<path d="M6.7964 10.329C7.396 10.329 7.9421 10.2504 8.4369 10.099C8.9309 9.9453 9.3559 9.7271 9.7103 9.4406C10.0676 9.1548 10.3381 8.8171 10.5268 8.4282C10.7147 8.0378 10.8083 7.6006 10.8083 7.113V7.0721C10.8083 6.0278 10.4495 5.2381 9.7326 4.7029C9.0149 4.1671 8.0632 3.8999 6.8797 3.8999H3.1835V10.3298L6.7964 10.329ZM0 1.04599H6.9956C8.0461 1.04599 9.0008 1.18478 9.8655 1.46015C10.7288 1.73477 11.4673 2.1289 12.0817 2.63658C12.6962 3.145 13.1694 3.7633 13.4971 4.4936C13.8262 5.2255 13.9904 6.0516 13.9904 6.9801V7.0343C13.9904 8.0497 13.795 8.9337 13.4042 9.693C13.0127 10.4493 12.4822 11.0854 11.8158 11.6035C11.1479 12.12 10.3693 12.5075 9.48 12.7658C8.5899 13.0241 7.6471 13.1532 6.6493 13.1532H3.1835V19.7539H0.000699997V1.04673L0 1.04599Z" fill="white"/>
<path d="M117.141 7.0469C115.991 8.1966 114.118 8.1966 112.951 7.0469C111.801 5.8972 111.801 4.0238 112.951 2.85703C114.102 1.69024 115.974 1.70731 117.141 2.85703C118.307 4.0067 118.307 5.8801 117.141 7.0469ZM111.547 1.45124C109.612 3.3862 109.612 6.5132 111.547 8.4334L115.048 11.9308L118.548 8.4334C120.484 6.4991 120.484 3.3714 118.548 1.45124C116.614 -0.483747 113.482 -0.483747 111.547 1.45124Z" fill="white"/>
<path d="M100.675 9.7234C101.228 9.7234 101.738 9.6514 102.206 9.5104C102.674 9.3686 103.077 9.1667 103.416 8.9047C103.756 8.6427 104.023 8.3243 104.214 7.9495C104.407 7.5746 104.501 7.1449 104.501 6.6654V6.6224C104.501 5.7027 104.168 4.985 103.502 4.4662C102.835 3.9496 101.901 3.692 100.696 3.692H96.103V9.7241H100.674L100.675 9.7234ZM92.907 0.959892H100.944C102.1 0.959892 103.129 1.12615 104.028 1.45273C104.927 1.78525 105.67 2.24469 106.257 2.83105C106.722 3.2957 107.074 3.839 107.325 4.4632C107.575 5.0852 107.7 5.771 107.7 6.5192V6.5734C107.7 7.3572 107.575 8.0571 107.325 8.6716C107.074 9.2855 106.726 9.8199 106.271 10.2763C105.816 10.7306 105.28 11.1039 104.656 11.3986C104.032 11.6925 103.358 11.9011 102.627 12.025L108.378 19.6685H104.432L99.007 12.4013H96.106V19.6685H92.908V0.961372L92.907 0.959892Z" fill="white"/>
<path d="M25.7764 0.820351C20.5513 0.820351 16.315 5.0518 16.315 10.2726C16.315 15.4935 20.5506 19.7249 25.7764 19.7249C31.0023 19.7249 35.2378 15.4935 35.2378 10.2726C35.2378 5.0518 31.0023 0.820351 25.7764 0.820351ZM25.7764 16.5378C22.3128 16.5378 19.5052 13.7329 19.5052 10.2726C19.5052 6.8124 22.3128 4.0075 25.7764 4.0075C29.24 4.0075 32.0476 6.8124 32.0476 10.2726C32.0476 13.7329 29.24 16.5378 25.7764 16.5378Z" fill="white"/>
</svg>
